<?xml version="1.0" encoding="utf-8"?>
<!-- Generator: Adobe Illustrator 22.0.1, SVG Export Plug-In . SVG Version: 6.00 Build 0)  -->
<svg version="1.1" id="Layer_1" xmlns="http://www.w3.org/2000/svg" xmlns:xlink="http://www.w3.org/1999/xlink" x="0px" y="0px"
	 viewBox="0 0 512.6 69.5" style="enable-background:new 0 0 512.6 69.5;" xml:space="preserve">
<g>
	<polygon points="1.4,11.8 16.9,11.8 16.9,54.9 20,54.9 20,11.8 35.5,11.8 35.5,9.1 1.4,9.1 	"/>
	<polygon points="74.8,31.3 46,31.3 46,13.3 43,13.3 43,54.9 46,54.9 46,33.9 74.8,33.9 74.8,54.9 77.8,54.9 77.8,13.3 74.8,13.3 	
		"/>
	<path d="M111.5,12.7c-5.9,0-10.9,2.1-14.9,6.2c-4,4.1-6,9.2-6,15.2c0,6,2,11.1,6,15.2c4,4.1,9,6.2,14.9,6.2
		c5.9,0,10.9-2.1,14.9-6.2c4-4.1,6-9.2,6-15.2c0-6-2-11.1-6-15.2C122.4,14.8,117.4,12.7,111.5,12.7z M124.3,47.4
		c-3.4,3.6-7.6,5.4-12.8,5.4c-5.1,0-9.4-1.8-12.8-5.4c-3.4-3.6-5.1-8-5.1-13.3c0-5.3,1.7-9.7,5.1-13.3c3.4-3.6,7.7-5.4,12.8-5.4
		c5.1,0,9.4,1.8,12.8,5.4c3.4,3.6,5.1,8.1,5.1,13.3C129.3,39.4,127.7,43.8,124.3,47.4z"/>
	<path d="M180,13.1l-14.4,30.7c-0.9,1.8-1.4,3.1-1.7,4c0-0.1-0.5-1.5-1.5-4l-12.9-30.7h-1.7l-6.8,41.8h2.9l4.8-31.4
		c0.1-0.5,0.2-1.1,0.3-1.8c0.1-0.7,0.2-1.3,0.2-1.7c0.1-0.4,0.1-0.7,0.1-0.7c0.5,1.5,1,2.9,1.5,4l12.1,29.4h1.7l13.6-29.3l1.9-4.2
		c0,0.7,0.1,2.1,0.4,4.2l4.5,31.6h3.1l-6.3-41.8H180z"/>
	<path d="M209.5,13.1l-17.4,41.8h3l6-14.4h18.4l6,14.4h3.3l-17.5-41.8H209.5z M218.5,38h-16.4l6.4-15.4c0.5-1.3,1.1-2.9,1.7-4.8
		c0.3,0.9,0.9,2.5,1.9,4.9L218.5,38z"/>
	<path d="M250.4,35c-0.8-0.6-2.3-1.7-4.4-3.2c-2.2-1.5-3.9-2.9-5.3-4.2c-1.9-1.8-2.9-3.9-2.9-6.2c0-2,0.7-3.6,2.2-4.7
		c1.4-1.1,3.3-1.7,5.6-1.7c3.5,0,6.5,0.6,9.2,1.9l1.1-2.4c-2.9-1.4-6.1-2.1-9.7-2.1s-6.4,0.8-8.4,2.4c-2,1.6-3,3.9-3,6.7
		c0,2.9,1.1,5.4,3.3,7.6c1.2,1.1,2.2,2,3,2.7c0.9,0.7,2.4,1.7,4.5,3.2c2.2,1.5,3.9,2.9,5.2,4.2c1.8,1.8,2.8,3.8,2.8,5.9
		c0,2.5-0.9,4.4-2.7,5.8c-1.8,1.4-4.3,2-7.6,2c-3.2,0-6.3-1-9.2-2.9l-1.5,2.2c2.9,2.2,6.4,3.3,10.7,3.3c4.2,0,7.6-0.9,9.9-2.7
		c2.4-1.8,3.6-4.5,3.6-8c0-2.7-1-5.1-3.1-7.2C252.2,36.6,251.2,35.7,250.4,35z"/>
	<path d="M315.2,42.9c-2.3-3-4.3-5.6-5.9-7.8c2-1.4,3.8-3.3,5.4-5.7c1.6-2.4,2.4-5,2.4-7.7c0-4.1-1.4-7.3-4.2-9.5
		c-2.8-2.2-6.4-3.4-10.8-3.4c-2.7,0-6.1,0.1-10.2,0.4v45.6h3.1V36.1c3.4,0.3,7.2,0.4,11.4,0.4c5.8,8,9.5,12.8,11,14.3
		c1.5,1.5,3,2.7,4.6,3.4c1.6,0.7,3.7,1.1,6.3,1.2l0.1-2c-3.3-0.4-6.2-2-8.8-4.7C319.1,47.8,317.6,46,315.2,42.9z M304.7,33.9
		c-2.9,0-6.1-0.1-9.5-0.3V11.9c2.6-0.2,4.8-0.3,6.7-0.3c3.6,0,6.5,0.8,8.7,2.5c2.2,1.7,3.3,4.2,3.3,7.4s-1.1,6.1-3.2,8.6
		C308.6,32.7,306.6,33.9,304.7,33.9z"/>
	<rect x="332.2" y="51.5" width="3.4" height="3.4"/>
	<path d="M385.1,30.4c1.9-1.1,3.5-2.6,4.8-4.7c1.3-2.1,2-4.4,2-6.8c0-3.2-1.3-5.7-3.8-7.4c-2.5-1.7-5.5-2.6-9-2.6
		c-3.5,0-6.9,0.1-10.2,0.4v45.5c4,0.3,8.2,0.5,12.6,0.5s7.9-1,10.4-3.1c2.5-2.1,3.8-5.1,3.8-9.2c0-2.9-1-5.4-3.1-7.7
		C390.7,32.9,388.2,31.3,385.1,30.4z M372,11.7c2.6-0.2,5-0.3,7.5-0.3s4.6,0.6,6.5,1.9c1.9,1.3,2.9,3.1,2.9,5.4c0,2.3-0.7,4.4-2,6.4
		c-1.4,1.9-3,3.4-4.9,4.4c-3-0.3-5.2-0.4-6.8-0.4c-1.5,0-2.6,0-3.1,0V11.7z M389.6,49.9c-2,1.7-4.6,2.6-7.7,2.6
		c-4.7,0-8-0.1-9.9-0.3V31.8c0.8,0,2.2,0,4.3,0c2.1,0,3.9,0.2,5.5,0.5c3.4,0.7,6,2.1,8,4c1.9,2,2.9,4.3,2.9,7S391.6,48.2,389.6,49.9
		z"/>
	<polygon points="411.4,33.5 426.2,33.5 426.2,31 411.4,31 411.4,15.9 427.8,15.9 427.8,13.3 408.4,13.3 408.4,54.9 428.5,54.9 
		428.5,52.2 411.4,52.2 	"/>
	<path d="M459.4,52.8c-4.9,0-9.2-1.8-13-5.5c-3.7-3.7-5.6-8.1-5.6-13.3c0-5.2,1.6-9.6,4.8-13.2c3.2-3.6,7.2-5.4,11.9-5.4
		c4.7,0,9.3,0.7,13.8,2l0.8-2.4c-4.6-1.5-9.3-2.2-14.1-2.2c-6,0-10.8,2-14.6,6.1c-3.8,4.1-5.7,9.2-5.7,15.3s2.2,11.2,6.5,15.3
		c4.3,4.1,9.3,6.1,15,6.1c5.7,0,10.1-0.9,13.3-2.7l-1-2C468.4,52.1,464.3,52.8,459.4,52.8z"/>
	<path d="M504.9,49.5c-2.6-2.3-7.4-7.6-14.4-16.1l17.7-20h-3.5l-17.9,20.2c1.9,2.3,4.7,5.6,8.5,10c3.8,4.3,6.2,7.1,7.4,8.2
		c1.2,1.1,2.5,2,4,2.7c1.5,0.7,3.4,1,5.8,1.1l0.1-2C510.1,53,507.5,51.8,504.9,49.5z"/>
	<rect x="483.1" y="13.3" width="2.9" height="41.5"/>
</g>
</svg>
